sfk_cyclingleg_x_-0.1_y_-0.04_states
version=1
nRows=11
nColumns=53
inDegrees=yes

# SIMM Motion File Header:
name sfk_cyclingleg_x_-0.1_y_-0.04_states
datacolumns 53
datarows 11
otherdata 1
range 0.00000000 0.03253611
endheader
time	/jointset/bb/crank_angle/value	/jointset/bb/crank_angle/speed	/jointset/spindle/pedal_angle_r/value	/jointset/spindle/pedal_angle_r/speed	/jointset/ground_pelvis/pelvis_tilt/value	/jointset/ground_pelvis/pelvis_tilt/speed	/jointset/ground_pelvis/pelvis_list/value	/jointset/ground_pelvis/pelvis_list/speed	/jointset/ground_pelvis/pelvis_rotation/value	/jointset/ground_pelvis/pelvis_rotation/speed	/jointset/ground_pelvis/pelvis_tx/value	/jointset/ground_pelvis/pelvis_tx/speed	/jointset/ground_pelvis/pelvis_ty/value	/jointset/ground_pelvis/pelvis_ty/speed	/jointset/ground_pelvis/pelvis_tz/value	/jointset/ground_pelvis/pelvis_tz/speed	/jointset/hip_r/hip_angle_r/value	/jointset/hip_r/hip_angle_r/speed	/jointset/hip_r/hip_adduction_r/value	/jointset/hip_r/hip_adduction_r/speed	/jointset/hip_r/hip_rotation_r/value	/jointset/hip_r/hip_rotation_r/speed	/jointset/knee_r/knee_angle_r/value	/jointset/knee_r/knee_angle_r/speed	/jointset/knee_r/tib_tx_r/value	/jointset/knee_r/tib_tx_r/speed	/jointset/knee_r/tib_ty_r/value	/jointset/knee_r/tib_ty_r/speed	/jointset/tib_pat_r/pat_angle_r/value	/jointset/tib_pat_r/pat_angle_r/speed	/jointset/tib_pat_r/pat_tx_r/value	/jointset/tib_pat_r/pat_tx_r/speed	/jointset/tib_pat_r/pat_ty_r/value	/jointset/tib_pat_r/pat_ty_r/speed	/jointset/ankle_r/ankle_angle_r/value	/jointset/ankle_r/ankle_angle_r/speed	/jointset/subtalar_r/subtalar_angle_r/value	/jointset/subtalar_r/subtalar_angle_r/speed	/jointset/mtp_r/mtp_angle_r/value	/jointset/mtp_r/mtp_angle_r/speed	/forceset/bifemlh_r/activation	/forceset/bifemlh_r/fiber_length	/forceset/bifemsh_r/activation	/forceset/bifemsh_r/fiber_length	/forceset/glut_max2_r/activation	/forceset/glut_max2_r/fiber_length	/forceset/vas_int_r/activation	/forceset/vas_int_r/fiber_length	/forceset/med_gas_r/activation	/forceset/med_gas_r/fiber_length	/forceset/tib_ant_r/activation	/forceset/tib_ant_r/fiber_length
      0.00000000	    -10.13487855	   -480.13863232	      4.76136289	    611.29293773	     -0.00000000	     -0.00000000	      0.00000000	     -0.00000000	      0.00000000	      0.00000000	     -0.10000000	     -0.00000000	     -0.04000000	     -0.00000000	      0.00000000	      0.00000000	     82.05281448	     28.44372847	      4.09300730	      1.45142020	     -3.66320041	     14.64208194	   -114.00767700	    145.26591921	     -0.00164673	      0.04735629	     -0.49411604	      0.04747347	     17.64939790	     -0.17206496	      0.02242263	      0.07018458	     -0.02412613	      0.01126624	     27.26072602	    -43.84918314	      0.00000000	     -0.00000000	     -0.00000000	     -0.00000000	      0.05000000	      0.13760443	      0.05000000	      0.14501278	      0.05000000	      0.15473023	      0.05000000	      0.15989988	      0.05000000	      0.13022518	      0.05000000	      0.11121987
      0.00115307	    -10.68851338	   -480.13863232	      5.46598644	    610.87274793	      0.00000000	      0.00000000	      0.00000000	      0.00000000	     -0.00000000	     -0.00000000	     -0.10000000	     -0.00000000	     -0.04000000	     -0.00000000	      0.00000000	      0.00000000	     82.08432895	     26.21718007	      4.09469278	      1.47198458	     -3.64621463	     14.81918494	   -113.83893108	    147.42057475	     -0.00159184	      0.04784543	     -0.49406086	      0.04822251	     17.64919262	     -0.18403414	      0.02250409	      0.07110765	     -0.02411306	      0.01140501	     27.20995481	    -44.21068489	     -0.00000000	     -0.00000000	     -0.00000000	     -0.00000000	      0.04917894	      0.13760539	      0.04917894	      0.14501557	      0.04917894	      0.15473131	      0.04917894	      0.15988665	      0.04917894	      0.13022747	      0.04917894	      0.11122149
      0.00547001	    -12.76124033	   -480.13863232	      8.09962020	    609.25764235	      0.00000000	      0.00000000	      0.00000000	      0.00000000	     -0.00000000	     -0.00000000	     -0.10000000	     -0.00000000	     -0.04000000	      0.00000000	      0.00000000	      0.00000000	     82.17945318	     17.84441546	      4.10120930	      1.54636340	     -3.58085212	     15.45579155	   -113.18533449	    155.34862955	     -0.00138154	      0.04955008	     -0.49384669	      0.05099565	     17.64829739	     -0.23136331	      0.02281834	      0.07445225	     -0.02406274	      0.01190072	     27.01639675	    -45.42732306	      0.00000000	      0.00000000	     -0.00000000	     -0.00000000	      0.04623713	      0.13762780	      0.04623713	      0.14507262	      0.04623713	      0.15475306	      0.04623713	      0.15968992	      0.04623713	      0.13027967	      0.04623713	      0.11126863
      0.00978694	    -14.83396727	   -480.13863232	     10.72615850	    607.58800766	      0.00000000	      0.00000000	      0.00000000	      0.00000000	     -0.00000000	     -0.00000000	     -0.10000000	     -0.00000000	     -0.04000000	      0.00000000	      0.00000000	      0.00000000	     82.23833767	      9.43158133	      4.10803754	      1.61634200	     -3.51283081	     16.05109019	   -112.49799176	    163.05411532	     -0.00116432	      0.05105304	     -0.49362065	      0.05371746	     17.64718979	     -0.28234937	      0.02314665	      0.07761938	     -0.02401037	      0.01235766	     26.81804801	    -46.43085949	      0.00000000	      0.00000000	     -0.00000000	     -0.00000000	      0.04349132	      0.13768381	      0.04349132	      0.14517841	      0.04349132	      0.15479462	      0.04349132	      0.15937672	      0.04349132	      0.13037826	      0.04349132	      0.11141532
      0.01481375	    -17.24753367	   -480.13863232	     13.77539636	    605.59442651	      0.00000000	      0.00000000	      0.00000000	      0.00000000	     -0.00000000	      0.00000000	     -0.10000000	     -0.00000000	     -0.04000000	      0.00000000	      0.00000000	     -0.00000000	     82.26107961	     -0.38410363	      4.11635511	      1.69182439	     -3.43050819	     16.69330085	   -111.65638626	    171.74089224	     -0.00090381	      0.05254707	     -0.49334280	      0.05681835	     17.64561291	     -0.34568916	      0.02354563	      0.08108152	     -0.02394701	      0.01283887	     26.58225397	    -47.33740001	      0.00000000	      0.00000000	     -0.00000000	      0.00000000	      0.04052064	      0.13779099	      0.04052064	      0.14532589	      0.04052064	      0.15485082	      0.04052064	      0.15905072	      0.04052064	      0.13051683	      0.04052064	      0.11167450
      0.01760827	    -18.58929134	   -480.13863232	     15.46617456	    604.47054639	      0.00000000	      0.00000000	      0.00000000	      0.00000000	     -0.00000000	      0.00000000	     -0.10000000	     -0.00000000	     -0.04000000	      0.00000000	      0.00000000	     -0.00000000	     82.25238471	     -5.83757087	      4.12113794	      1.73082080	     -3.38338810	     17.02717798	   -111.16987067	    176.43540935	     -0.00075596	      0.05325827	     -0.49318165	      0.05850881	     17.64459574	     -0.38245066	      0.02377477	      0.08290076	     -0.02391079	      0.01308194	     26.44941069	    -47.72280296	      0.00000000	      0.00000000	      0.00000000	      0.00000000	      0.03896702	      0.13786528	      0.03896702	      0.14541577	      0.03896702	      0.15488025	      0.03896702	      0.15880833	      0.03896702	      0.13059090	      0.03896702	      0.11183167
      0.02148016	    -20.44833080	   -480.13863232	     17.80357995	    602.90267840	      0.00000000	      0.00000000	      0.00000000	      0.00000000	     -0.00000000	     -0.00000000	     -0.10000000	     -0.00000000	     -0.04000000	      0.00000000	      0.00000000	     -0.00000000	     82.21517959	    -13.37617074	      4.12793836	      1.78117445	     -3.31660691	     17.46323287	   -110.47439197	    182.77941162	     -0.00054806	      0.05410310	     -0.49295064	      0.06080985	     17.64301399	     -0.43484228	      0.02410044	      0.08529691	     -0.02385953	      0.01338905	     26.26381229	    -48.12122088	      0.00000000	      0.00000000	      0.00000000	      0.00000000	      0.03692206	      0.13797666	      0.03692206	      0.14554747	      0.03692206	      0.15491544	      0.03692206	      0.15851541	      0.03692206	      0.13070858	      0.03692206	      0.11204665
      0.02484365	    -22.06327304	   -480.13863232	     19.82914051	    601.53631909	      0.00000000	      0.00000000	      0.00000000	      0.00000000	     -0.00000000	      0.00000000	     -0.10000000	     -0.00000000	     -0.04000000	      0.00000000	     -0.00000000	     -0.00000000	     82.15921204	    -19.89827525	      4.13399780	      1.82132703	     -3.25726707	     17.81773237	   -109.85056262	    188.13853713	     -0.00036504	      0.05470523	     -0.49274280	      0.06276864	     17.64147332	     -0.48140545	      0.02439067	      0.08726155	     -0.02381409	      0.01362726	     26.10155150	    -48.34349521	      0.00000000	      0.00000000	      0.00000000	      0.00000000	      0.03524118	      0.13807472	      0.03524118	      0.14566978	      0.03524118	      0.15493937	      0.03524118	      0.15822084	      0.03524118	      0.13081293	      0.03524118	      0.11223247
      0.02764273	    -23.40722061	   -480.13863232	     21.51129925	    600.39991717	      0.00000000	      0.00000000	      0.00000000	      0.00000000	      0.00000000	      0.00000000	     -0.10000000	     -0.00000000	     -0.04000000	      0.00000000	     -0.00000000	     -0.00000000	     82.09594895	    -25.30006406	      4.13913951	      1.85212203	     -3.20700074	     18.09607746	   -109.31783380	    192.49045412	     -0.00021132	      0.05511369	     -0.49256486	      0.06436937	     17.64007098	     -0.52065842	      0.02463711	      0.08881419	     -0.02377570	      0.01380483	     25.96607616	    -48.44372004	      0.00000000	     -0.00000000	      0.00000000	      0.00000000	      0.03390621	      0.13815386	      0.03390621	      0.14577730	      0.03390621	      0.15495408	      0.03390621	      0.15799517	      0.03390621	      0.13091389	      0.03390621	      0.11238643
      0.03079765	    -24.92201796	   -480.13863232	     23.40349549	    599.12328556	      0.00000000	      0.00000000	      0.00000000	      0.00000000	      0.00000000	      0.00000000	     -0.10000000	     -0.00000000	     -0.04000000	      0.00000000	      0.00000000	      0.00000000	     82.00656946	    -31.35368611	      4.14503377	      1.88391495	     -3.14943711	     18.39225726	   -108.70295750	    197.27803955	     -0.00003685	      0.05547425	     -0.49235898	      0.06614069	     17.63835813	     -0.56519447	      0.02491996	      0.09047528	     -0.02373186	      0.01398210	     25.81317819	    -48.46760948	      0.00000000	      0.00000000	      0.00000000	      0.00000000	      0.03246739	      0.13823828	      0.03246739	      0.14590476	      0.03246739	      0.15496480	      0.03246739	      0.15771045	      0.03246739	      0.13101432	      0.03246739	      0.11255895
      0.03253611	    -25.75672247	   -480.13863232	     24.44444159	    598.42295169	      0.00000000	      0.00000000	      0.00000000	      0.00000000	      0.00000000	      0.00000000	     -0.10000000	     -0.00000000	     -0.04000000	      0.00000000	      0.00000000	      0.00000000	     81.94917641	    -34.67126159	      4.14832309	      1.90009289	     -3.11732686	     18.54774908	   -108.35774404	    199.86296380	      0.00005973	      0.05562818	     -0.49224316	      0.06710153	     17.63735420	     -0.58976969	      0.02507801	      0.09135065	     -0.02370747	      0.01406929	     25.72893751	    -48.44167457	      0.00000000	     -0.00000000	      0.00000000	      0.00000000	      0.03170308	      0.13828218	      0.03170308	      0.14597817	      0.03170308	      0.15496803	      0.03170308	      0.15755714	      0.03170308	      0.13108848	      0.03170308	      0.11265347
